<svg preserveAspectRatio="none" overflow="visible" style="display: block;" width="13.3372" height="13.3333" viewBox="0 0 13.3372 13.3333" fill="none" xmlns="http://www.w3.org/2000/svg">
<g id="Icon outline">
<path id="Vector" d="M5.33334 10.6667C4.2785 10.6667 3.24736 10.3539 2.37029 9.76784C1.49323 9.18181 0.809646 8.34885 0.405978 7.37431C0.00231084 6.39977 -0.103307 5.32742 0.102481 4.29285C0.308269 3.25829 0.81622 2.30798 1.5621 1.5621C2.30798 0.81622 3.25829 0.308269 4.29285 0.102481C5.32742 -0.103307 6.39977 0.00231084 7.37431 0.405978C8.34885 0.809646 9.18181 1.49323 9.76784 2.37029C10.3539 3.24736 10.6667 4.2785 10.6667 5.33334C10.6667 6.74782 10.1048 8.10438 9.10457 9.10457C8.10438 10.1048 6.74782 10.6667 5.33334 10.6667V10.6667ZM5.33334 1.33334C4.54221 1.33334 3.76885 1.56793 3.11105 2.00746C2.45326 2.44698 1.94057 3.0717 1.63782 3.8026C1.33507 4.53351 1.25585 5.33777 1.41019 6.1137C1.56454 6.88962 1.9455 7.60235 2.50491 8.16176C3.06432 8.72117 3.77705 9.10214 4.55297 9.25648C5.3289 9.41082 6.13316 9.3316 6.86407 9.02885C7.59497 8.7261 8.21969 8.21341 8.65921 7.55562C9.09874 6.89782 9.33334 6.12446 9.33334 5.33334C9.33334 4.27247 8.91191 3.25505 8.16176 2.50491C7.41162 1.75476 6.3942 1.33334 5.33334 1.33334Z" fill="#8493A6"/>
<path id="Vector_2" d="M12.6667 13.3333C12.5789 13.3338 12.492 13.317 12.4107 13.2839C12.3295 13.2507 12.2556 13.2018 12.1933 13.14L8.45334 9.39334C8.34412 9.2658 8.28705 9.10175 8.29353 8.93397C8.30001 8.76618 8.36956 8.60702 8.48829 8.48829C8.60702 8.36956 8.76618 8.30001 8.93397 8.29353C9.10175 8.28705 9.2658 8.34412 9.39334 8.45334L13.14 12.1933C13.2025 12.2553 13.2521 12.329 13.2859 12.4103C13.3198 12.4915 13.3372 12.5787 13.3372 12.6667C13.3372 12.7547 13.3198 12.8418 13.2859 12.9231C13.2521 13.0043 13.2025 13.078 13.14 13.14C13.0777 13.2018 13.0038 13.2507 12.9226 13.2839C12.8414 13.317 12.7544 13.3338 12.6667 13.3333Z" fill="#8493A6"/>
</g>
</svg>
